<svg xmlns="http://www.w3.org/2000/svg" xmlns:xlink="http://www.w3.org/1999/xlink" viewBox="0,0,256,256" width="512px" height="512px" fill-rule="nonzero"><g fill="#6eb467" fill-rule="nonzero" stroke="none" stroke-width="1" stroke-linecap="butt" stroke-linejoin="miter" stroke-miterlimit="10" stroke-dasharray="" stroke-dashoffset="0" font-family="none" font-weight="none" font-size="none" text-anchor="none" style="mix-blend-mode: normal"><g transform="scale(3.55556,3.55556)"><path d="M36,12c-13.25,0 -24,10.75 -24,24c0,13.25 10.75,24 24,24c13.25,0 24,-10.75 24,-24c0,-2.59 -0.40969,-5.08016 -1.17969,-7.41016l-7.29102,11.26953c-0.023,0.093 -0.04727,0.1863 -0.07227,0.2793c-1.817,6.829 -8.04803,11.86133 -15.45703,11.86133c-8.84,0 -16,-7.16 -16,-16c0,-8.84 7.16,-16 16,-16c2.54,0 4.94031,0.59062 7.07031,1.64063l4.35938,-6.74023c-3.4,-1.85 -7.28969,-2.90039 -11.42969,-2.90039zM53.12109,17.12695c-1.44433,0.02869 -2.84898,0.75031 -3.69336,2.05469l-10.27344,15.87695l-5.1875,-5.94727c-1.634,-1.874 -4.47861,-2.06564 -6.34961,-0.43164c-1.873,1.634 -2.06564,4.47566 -0.43164,6.34766l9.11328,10.44531c0.858,0.983 2.09562,1.54297 3.39063,1.54297c0.107,0 0.21331,-0.00472 0.32031,-0.01172c1.409,-0.101 2.68903,-0.85597 3.45703,-2.04297l13.51758,-20.89063c1.35,-2.086 0.75302,-4.87166 -1.33398,-6.22266c-0.7815,-0.50587 -1.6627,-0.73792 -2.5293,-0.7207z"></path></g></g></svg>