<svg xmlns="http://www.w3.org/2000/svg" xmlns:xlink="http://www.w3.org/1999/xlink" width="500" zoomAndPan="magnify" viewBox="0 0 375 374.999991" height="500" preserveAspectRatio="xMidYMid meet" version="1.0"><defs><clipPath id="0a9555c141"><path d="M 0 0 L 375 0 L 375 374.855469 L 0 374.855469 Z M 0 0 " clip-rule="nonzero" data-index="0" style="visibility: visible;"></path></clipPath><clipPath id="80fca60813"><path d="M 60 33 L 315 33 L 315 374.855469 L 60 374.855469 Z M 60 33 " clip-rule="nonzero" data-index="1" style="visibility: visible;"></path></clipPath></defs><g clip-path="url(#0a9555c141)"></g><g clip-path="url(#80fca60813)"><path fill="#7189f8" d="M 80.5 71.625 C 91.78125 65.277344 104.558594 61.898438 117.859375 61.898438 C 138.253906 61.898438 157.429688 69.84375 171.851562 84.265625 C 178.488281 90.902344 183.75 98.542969 187.5 106.847656 C 191.25 98.542969 196.507812 90.902344 203.144531 84.265625 C 217.566406 69.84375 236.742188 61.898438 257.140625 61.898438 C 270.4375 61.898438 283.214844 65.277344 294.496094 71.625 C 307.019531 61.601562 313.023438 49.039062 312.894531 33.03125 L 233.722656 58.128906 C 231.3125 58.894531 228.699219 58.671875 226.453125 57.507812 C 215.269531 51.726562 201.800781 48.667969 187.5 48.667969 C 173.195312 48.667969 159.726562 51.726562 148.542969 57.507812 C 146.296875 58.671875 143.683594 58.894531 141.273438 58.128906 L 62.101562 33.03125 C 61.976562 49.039062 67.976562 61.601562 80.5 71.625 Z M 257.140625 80.988281 C 225.558594 80.988281 199.867188 106.679688 199.867188 138.261719 C 199.867188 169.839844 225.558594 195.535156 257.140625 195.535156 C 288.71875 195.535156 314.414062 169.839844 314.414062 138.261719 C 314.414062 106.679688 288.71875 80.988281 257.140625 80.988281 Z M 117.859375 195.535156 C 149.4375 195.535156 175.132812 169.839844 175.132812 138.261719 C 175.132812 106.679688 149.4375 80.988281 117.859375 80.988281 C 86.277344 80.988281 60.585938 106.679688 60.585938 138.261719 C 60.585938 169.839844 86.277344 195.535156 117.859375 195.535156 Z M 310.933594 280.757812 C 310.933594 253.722656 305.085938 227.808594 294.125 205.097656 C 282.933594 211.3125 270.292969 214.621094 257.140625 214.621094 C 237.777344 214.621094 219.515625 207.460938 205.375 194.394531 C 204.992188 195.132812 204.558594 195.855469 204.074219 196.554688 L 187.5 220.542969 L 170.921875 196.554688 C 170.441406 195.855469 170.003906 195.132812 169.621094 194.394531 C 155.480469 207.460938 137.21875 214.621094 117.859375 214.621094 C 104.703125 214.621094 92.058594 211.3125 80.867188 205.097656 C 69.90625 227.796875 64.066406 253.703125 64.066406 280.757812 C 64.066406 304.300781 68.550781 326.589844 76.53125 346.441406 C 72.113281 343.996094 67.785156 341.402344 63.550781 338.679688 C 63.554688 338.6875 63.554688 338.691406 63.558594 338.699219 C 99.308594 361.671875 141.847656 374.996094 187.496094 374.996094 C 233.148438 374.996094 275.6875 361.671875 311.4375 338.699219 C 311.441406 338.691406 311.441406 338.6875 311.445312 338.679688 C 307.210938 341.402344 302.882812 343.996094 298.464844 346.441406 C 306.445312 326.589844 310.933594 304.300781 310.933594 280.757812 Z M 310.933594 280.757812 " fill-opacity="1" fill-rule="nonzero" data-index="3" style="visibility: visible; opacity: 1;"></path></g><path fill="#ffffff" d="M 128.28125 269.496094 C 130.691406 271.777344 134.121094 272.644531 137.328125 271.777344 C 142.304688 270.433594 147.242188 268.890625 152.074219 267.179688 C 156.074219 270.347656 160.226562 273.394531 164.46875 276.269531 C 167.234375 278.144531 170.78125 278.4375 173.816406 277.039062 C 178.464844 274.898438 183.046875 272.578125 187.496094 270.105469 C 191.945312 272.574219 196.53125 274.898438 201.179688 277.039062 C 202.449219 277.625 203.8125 277.914062 205.171875 277.914062 C 207.050781 277.914062 208.917969 277.359375 210.527344 276.269531 C 214.769531 273.390625 218.921875 270.347656 222.921875 267.179688 C 227.753906 268.890625 232.695312 270.429688 237.667969 271.777344 C 240.875 272.644531 244.304688 271.777344 246.714844 269.496094 C 251.832031 264.652344 256.734375 259.53125 261.277344 254.265625 C 264.722656 250.277344 264.28125 244.25 260.289062 240.808594 C 256.300781 237.363281 250.273438 237.804688 246.832031 241.792969 C 243.863281 245.230469 240.722656 248.605469 237.464844 251.867188 C 233.085938 250.542969 228.761719 249.0625 224.558594 247.4375 C 221.320312 246.183594 217.652344 246.792969 214.988281 249.023438 C 211.554688 251.90625 207.960938 254.695312 204.265625 257.359375 C 200.195312 255.339844 196.207031 253.175781 192.359375 250.894531 C 189.363281 249.121094 185.632812 249.121094 182.636719 250.894531 C 178.785156 253.175781 174.796875 255.339844 170.730469 257.359375 C 167.035156 254.699219 163.445312 251.90625 160.007812 249.023438 C 157.34375 246.792969 153.675781 246.183594 150.4375 247.4375 C 146.234375 249.0625 141.910156 250.542969 137.53125 251.867188 C 134.273438 248.605469 131.136719 245.230469 128.167969 241.792969 C 124.726562 237.804688 118.699219 237.363281 114.710938 240.808594 C 110.71875 244.25 110.277344 250.277344 113.722656 254.265625 C 118.265625 259.527344 123.164062 264.652344 128.28125 269.496094 Z M 260.289062 331.558594 C 256.300781 328.113281 250.273438 328.554688 246.828125 332.542969 C 243.859375 335.980469 240.722656 339.355469 237.464844 342.617188 C 233.085938 341.296875 228.761719 339.8125 224.558594 338.1875 C 221.320312 336.933594 217.652344 337.542969 214.988281 339.773438 C 211.550781 342.65625 207.960938 345.445312 204.265625 348.109375 C 200.195312 346.089844 196.207031 343.925781 192.359375 341.644531 C 189.359375 339.871094 185.632812 339.871094 182.632812 341.644531 C 178.785156 343.925781 174.796875 346.089844 170.730469 348.109375 C 167.035156 345.445312 163.441406 342.65625 160.003906 339.773438 C 157.339844 337.542969 153.675781 336.933594 150.433594 338.1875 C 146.230469 339.8125 141.910156 341.292969 137.53125 342.617188 C 134.273438 339.355469 131.136719 335.980469 128.167969 332.542969 C 124.726562 328.554688 118.699219 328.113281 114.707031 331.558594 C 110.71875 335 110.277344 341.027344 113.722656 345.015625 C 118.265625 350.28125 123.164062 355.402344 128.277344 360.242188 C 130.691406 362.527344 134.121094 363.390625 137.328125 362.523438 C 142.304688 361.179688 147.242188 359.640625 152.074219 357.929688 C 156.074219 361.097656 160.222656 364.140625 164.46875 367.019531 C 167.234375 368.894531 170.78125 369.1875 173.816406 367.789062 C 178.460938 365.648438 183.046875 363.324219 187.496094 360.855469 C 191.945312 363.324219 196.53125 365.648438 201.179688 367.789062 C 202.449219 368.375 203.8125 368.664062 205.167969 368.664062 C 207.050781 368.664062 208.917969 368.109375 210.523438 367.019531 C 214.769531 364.140625 218.921875 361.097656 222.917969 357.929688 C 227.75 359.640625 232.691406 361.179688 237.667969 362.523438 C 240.875 363.390625 244.300781 362.527344 246.714844 360.246094 C 251.832031 355.402344 256.730469 350.28125 261.277344 345.015625 C 264.722656 341.027344 264.277344 335 260.289062 331.554688 Z M 269.675781 285.476562 C 265.6875 282.03125 259.660156 282.476562 256.214844 286.464844 C 252.632812 290.613281 248.839844 294.679688 244.894531 298.601562 C 239.601562 297.023438 234.375 295.242188 229.300781 293.28125 C 226.0625 292.027344 222.394531 292.636719 219.730469 294.867188 C 215.582031 298.347656 211.234375 301.710938 206.757812 304.910156 C 201.832031 302.488281 197.007812 299.882812 192.359375 297.128906 C 189.359375 295.355469 185.632812 295.355469 182.632812 297.128906 C 177.984375 299.882812 173.160156 302.488281 168.234375 304.910156 C 163.761719 301.710938 159.414062 298.347656 155.265625 294.867188 C 152.601562 292.636719 148.933594 292.027344 145.691406 293.28125 C 140.621094 295.238281 135.394531 297.023438 130.101562 298.597656 C 126.15625 294.679688 122.363281 290.613281 118.78125 286.464844 C 115.339844 282.476562 109.3125 282.03125 105.324219 285.476562 C 101.332031 288.921875 100.890625 294.949219 104.335938 298.9375 C 109.492188 304.910156 115.046875 310.722656 120.851562 316.214844 C 123.265625 318.5 126.691406 319.363281 129.902344 318.496094 C 135.789062 316.90625 141.628906 315.074219 147.332031 313.03125 C 152.046875 316.792969 156.953125 320.402344 161.976562 323.808594 C 164.742188 325.683594 168.289062 325.976562 171.324219 324.578125 C 176.824219 322.042969 182.246094 319.285156 187.496094 316.351562 C 192.75 319.285156 198.167969 322.042969 203.671875 324.578125 C 204.945312 325.164062 206.304688 325.453125 207.664062 325.453125 C 209.542969 325.453125 211.414062 324.898438 213.019531 323.808594 C 218.042969 320.402344 222.949219 316.792969 227.664062 313.03125 C 233.367188 315.074219 239.210938 316.90625 245.09375 318.496094 C 248.304688 319.359375 251.730469 318.496094 254.144531 316.214844 C 259.949219 310.722656 265.507812 304.90625 270.664062 298.9375 C 274.109375 294.945312 273.667969 288.921875 269.675781 285.476562 Z M 269.675781 285.476562 " fill-opacity="1" fill-rule="nonzero" data-index="4" style="visibility: visible; opacity: 1;"></path><path fill="#ffffff" d="M 34.117188 248.527344 C 30.417969 269.347656 33.796875 292.832031 43.636719 314.65625 C 45.710938 319.261719 48.039062 323.671875 50.570312 327.855469 C 46.859375 312.636719 44.976562 296.863281 44.976562 280.757812 C 44.976562 257.996094 48.71875 235.90625 56.097656 215.105469 C 56.953125 212.695312 57.855469 210.316406 58.800781 207.964844 C 46.1875 215.449219 37.457031 229.75 34.117188 248.527344 Z M 157.574219 97.035156 C 149.71875 92.605469 140.648438 90.074219 130.988281 90.074219 C 101.042969 90.074219 76.769531 114.351562 76.769531 144.296875 C 76.769531 167.75 91.660156 187.722656 112.503906 195.28125 C 114.265625 195.445312 116.054688 195.535156 117.859375 195.535156 C 149.4375 195.535156 175.132812 169.839844 175.132812 138.261719 C 175.132812 122.085938 168.390625 107.460938 157.574219 97.035156 Z M 244.011719 90.074219 C 234.347656 90.074219 225.28125 92.605469 217.421875 97.035156 C 206.605469 107.460938 199.863281 122.085938 199.863281 138.261719 C 199.863281 169.839844 225.558594 195.535156 257.140625 195.535156 C 258.945312 195.535156 260.730469 195.445312 262.492188 195.28125 C 283.335938 187.722656 298.230469 167.75 298.230469 144.296875 C 298.230469 114.351562 273.953125 90.074219 244.007812 90.074219 Z M 340.878906 248.527344 C 337.539062 229.75 328.808594 215.445312 316.195312 207.960938 C 317.183594 210.429688 318.132812 212.925781 319.027344 215.460938 C 326.320312 236.160156 330.019531 258.128906 330.019531 280.757812 C 330.019531 296.863281 328.140625 312.636719 324.429688 327.855469 C 326.960938 323.671875 329.285156 319.261719 331.359375 314.65625 C 341.199219 292.835938 344.582031 269.347656 340.878906 248.527344 Z M 340.878906 248.527344 " fill-opacity="1" fill-rule="nonzero" data-index="5" style="visibility: visible; opacity: 1;"></path><path fill="#444444" d="M 359.671875 245.1875 C 357.488281 232.910156 353.363281 221.96875 347.40625 212.65625 C 341.035156 202.699219 332.867188 195.066406 323.121094 189.972656 C 320.746094 188.730469 318.382812 187.699219 316.027344 186.878906 C 327.34375 173.222656 333.5 156.214844 333.5 138.261719 C 333.5 117.863281 325.558594 98.6875 311.132812 84.265625 C 310.8125 83.941406 310.484375 83.625 310.15625 83.308594 C 317.007812 77.054688 322.285156 69.964844 325.917969 62.109375 C 331.722656 49.554688 333.351562 34.996094 330.757812 18.835938 C 330.316406 16.09375 328.707031 13.679688 326.34375 12.222656 C 323.980469 10.765625 321.097656 10.410156 318.453125 11.25 L 231.59375 38.785156 C 218.503906 32.753906 203.351562 29.582031 187.5 29.582031 C 171.648438 29.582031 156.496094 32.753906 143.40625 38.785156 L 56.546875 11.25 C 53.902344 10.410156 51.019531 10.765625 48.65625 12.222656 C 46.292969 13.679688 44.683594 16.09375 44.242188 18.835938 C 41.648438 34.996094 43.277344 49.554688 49.082031 62.109375 C 52.714844 69.964844 57.992188 77.054688 64.84375 83.308594 C 64.515625 83.625 64.1875 83.941406 63.863281 84.265625 C 49.441406 98.6875 41.5 117.863281 41.5 138.261719 C 41.5 156.214844 47.65625 173.222656 58.96875 186.878906 C 56.617188 187.699219 54.253906 188.730469 51.878906 189.972656 C 42.132812 195.066406 33.964844 202.699219 27.59375 212.65625 C 21.636719 221.96875 17.511719 232.910156 15.328125 245.1875 C 12.191406 262.820312 13.304688 281.945312 18.402344 300.691406 C 28.335938 311.507812 39.300781 321.367188 51.132812 330.117188 C 51.132812 330.117188 51.132812 330.117188 51.132812 330.121094 C 51.222656 330.1875 51.316406 330.253906 51.410156 330.320312 C 51.847656 330.644531 52.28125 330.964844 52.71875 331.285156 C 52.714844 331.277344 52.707031 331.269531 52.703125 331.261719 C 60.308594 336.789062 68.261719 341.867188 76.535156 346.441406 C 68.550781 326.589844 64.066406 304.300781 64.066406 280.757812 C 64.066406 253.703125 69.910156 227.796875 80.871094 205.097656 C 92.0625 211.3125 104.707031 214.621094 117.859375 214.621094 C 137.222656 214.621094 155.480469 207.460938 169.621094 194.394531 C 170.007812 195.132812 170.441406 195.855469 170.925781 196.554688 L 187.5 220.542969 L 204.078125 196.554688 C 204.558594 195.855469 204.992188 195.132812 205.378906 194.394531 C 219.519531 207.457031 237.777344 214.621094 257.140625 214.621094 C 270.292969 214.621094 282.9375 211.3125 294.125 205.097656 C 305.089844 227.808594 310.933594 253.722656 310.933594 280.757812 C 310.933594 304.300781 306.449219 326.59375 298.46875 346.441406 C 306.738281 341.867188 314.691406 336.789062 322.296875 331.261719 C 322.292969 331.269531 322.289062 331.277344 322.285156 331.285156 C 322.722656 330.96875 323.15625 330.644531 323.589844 330.324219 C 323.683594 330.253906 323.777344 330.1875 323.871094 330.121094 C 323.871094 330.117188 323.871094 330.117188 323.871094 330.117188 C 335.703125 321.367188 346.664062 311.507812 356.601562 300.691406 C 361.695312 281.945312 362.808594 262.820312 359.671875 245.1875 Z M 56.097656 215.105469 C 48.71875 235.90625 44.976562 257.996094 44.976562 280.757812 C 44.976562 296.863281 46.855469 312.636719 50.570312 327.855469 C 48.039062 323.671875 45.710938 319.261719 43.636719 314.65625 C 33.796875 292.832031 30.417969 269.347656 34.117188 248.527344 C 37.457031 229.75 46.1875 215.449219 58.800781 207.964844 C 57.855469 210.316406 56.953125 212.695312 56.097656 215.105469 Z M 117.859375 195.535156 C 86.277344 195.535156 60.585938 169.839844 60.585938 138.261719 C 60.585938 106.679688 86.277344 80.988281 117.859375 80.988281 C 149.4375 80.988281 175.132812 106.679688 175.132812 138.261719 C 175.132812 169.839844 149.4375 195.535156 117.859375 195.535156 Z M 187.5 106.847656 C 183.75 98.542969 178.488281 90.902344 171.855469 84.265625 C 157.429688 69.84375 138.253906 61.898438 117.859375 61.898438 C 104.5625 61.898438 91.78125 65.277344 80.5 71.625 C 67.976562 61.601562 61.976562 49.039062 62.101562 33.03125 L 141.273438 58.128906 C 143.683594 58.894531 146.296875 58.671875 148.542969 57.507812 C 159.726562 51.726562 173.199219 48.667969 187.5 48.667969 C 201.800781 48.667969 215.273438 51.726562 226.457031 57.507812 C 228.703125 58.671875 231.316406 58.894531 233.726562 58.128906 L 312.898438 33.03125 C 313.023438 49.039062 307.023438 61.601562 294.5 71.625 C 283.21875 65.277344 270.4375 61.898438 257.140625 61.898438 C 236.742188 61.898438 217.566406 69.84375 203.144531 84.265625 C 196.507812 90.902344 191.25 98.542969 187.5 106.847656 Z M 257.140625 195.535156 C 225.558594 195.535156 199.867188 169.839844 199.867188 138.261719 C 199.867188 106.679688 225.558594 80.988281 257.140625 80.988281 C 288.71875 80.988281 314.414062 106.679688 314.414062 138.261719 C 314.414062 169.839844 288.71875 195.535156 257.140625 195.535156 Z M 331.363281 314.65625 C 329.285156 319.261719 326.960938 323.671875 324.429688 327.855469 C 328.140625 312.636719 330.019531 296.863281 330.019531 280.757812 C 330.019531 258.128906 326.320312 236.160156 319.027344 215.460938 C 318.132812 212.925781 317.183594 210.429688 316.195312 207.960938 C 328.808594 215.445312 337.539062 229.75 340.878906 248.527344 C 344.582031 269.347656 341.203125 292.832031 331.363281 314.65625 Z M 137.902344 118.796875 C 125.824219 118.796875 116.035156 128.585938 116.035156 140.664062 C 116.035156 152.742188 125.824219 162.53125 137.902344 162.53125 C 149.976562 162.53125 159.769531 152.742188 159.769531 140.664062 C 159.769531 128.585938 149.976562 118.796875 137.902344 118.796875 Z M 129.027344 138.972656 C 125.9375 138.972656 123.429688 136.46875 123.429688 133.375 C 123.429688 130.285156 125.9375 127.777344 129.027344 127.777344 C 132.121094 127.777344 134.625 130.285156 134.625 133.375 C 134.625 136.46875 132.121094 138.972656 129.027344 138.972656 Z M 237.097656 118.796875 C 225.019531 118.796875 215.230469 128.585938 215.230469 140.664062 C 215.230469 152.742188 225.019531 162.53125 237.097656 162.53125 C 249.171875 162.53125 258.964844 152.742188 258.964844 140.664062 C 258.964844 128.585938 249.171875 118.796875 237.097656 118.796875 Z M 245.96875 138.972656 C 242.878906 138.972656 240.371094 136.46875 240.371094 133.375 C 240.371094 130.285156 242.878906 127.777344 245.96875 127.777344 C 249.0625 127.777344 251.570312 130.285156 251.570312 133.375 C 251.570312 136.46875 249.0625 138.972656 245.96875 138.972656 Z M 245.96875 138.972656 " fill-opacity="1" fill-rule="nonzero" data-index="6" style="visibility: visible; opacity: 1;"></path></svg>